<mxfile host="Electron" modified="2024-12-19T08:55:04.656Z" agent="Mozilla/5.0 (Windows NT 10.0; Win64; x64) AppleWebKit/537.36 (KHTML, like Gecko) draw.io/21.1.2 Chrome/106.0.5249.199 Electron/21.4.3 Safari/537.36" etag="zeQs7e_YhX4w-E1HgT1F" version="21.1.2" type="device">
  <diagram name="第 1 页" id="hERMz7mYs3Nd5kdopg3p">
    <mxGraphModel dx="555" dy="689" grid="1" gridSize="10" guides="1" tooltips="1" connect="1" arrows="1" fold="1" page="1" pageScale="1" pageWidth="827" pageHeight="1169" math="0" shadow="0">
      <root>
        <mxCell id="0" />
        <mxCell id="1" parent="0" />
        <mxCell id="N7gpur8GiexcyIwk1VWw-49" value="" style="rounded=0;whiteSpace=wrap;html=1;dashed=1;strokeColor=#4D4D4D;strokeWidth=1.5;" vertex="1" parent="1">
          <mxGeometry x="580" y="400" width="410" height="280" as="geometry" />
        </mxCell>
        <mxCell id="N7gpur8GiexcyIwk1VWw-48" value="" style="rounded=0;whiteSpace=wrap;html=1;dashed=1;strokeColor=#4D4D4D;strokeWidth=1.5;" vertex="1" parent="1">
          <mxGeometry x="580" y="690" width="410" height="190" as="geometry" />
        </mxCell>
        <mxCell id="N7gpur8GiexcyIwk1VWw-4" value="" style="rounded=0;whiteSpace=wrap;html=1;dashed=1;strokeColor=#4D4D4D;strokeWidth=1.5;" vertex="1" parent="1">
          <mxGeometry x="580" y="890" width="410" height="90" as="geometry" />
        </mxCell>
        <mxCell id="N7gpur8GiexcyIwk1VWw-5" value="" style="rounded=0;whiteSpace=wrap;html=1;" vertex="1" parent="1">
          <mxGeometry x="600" y="900" width="370" height="70" as="geometry" />
        </mxCell>
        <mxCell id="N7gpur8GiexcyIwk1VWw-6" value="" style="rounded=0;whiteSpace=wrap;html=1;" vertex="1" parent="1">
          <mxGeometry x="600" y="700" width="370" height="70" as="geometry" />
        </mxCell>
        <mxCell id="N7gpur8GiexcyIwk1VWw-7" value="" style="rounded=0;whiteSpace=wrap;html=1;" vertex="1" parent="1">
          <mxGeometry x="600" y="505" width="370" height="70" as="geometry" />
        </mxCell>
        <mxCell id="N7gpur8GiexcyIwk1VWw-8" value="" style="shape=image;verticalLabelPosition=bottom;labelBackgroundColor=default;verticalAlign=top;aspect=fixed;imageAspect=0;image=data:image/png,iVBORw0KGgoAAAANSUhEUgAAAOEAAADhCAMAAAAJbSJIAAAAdVBMVEX///8AAAD8/PyPj49NTU309PQkJCTExMTR0dF6enra2trt7e1KSkqysrL5+fm9vb3i4uKoqKgfHx/n5+dpaWlDQ0MsLCxxcXHX19eZmZkaGhq1tbU4ODhWVlZhYWESEhKGhoZ3d3epqamdnZ0zMzNaWlqKioqs9ymcAAAOV0lEQVR4nNVd62KqMAxmMgRBLirebzjc3v8Rz5zzaNI0baEF9v3cKjQ096St5znGKAvifFb76+NhNd6d397ezrvx6nBc+/Usj4Ns5HoCLpHE+6o8vPE4lF/7OOl7qg2wSculgrZXLMt00/eUDbCppwbEPTGt/wKVSbpuRN0D63TQHFvMjq3Iu+M4K/omhEYwa8abFKazoG9yBIQna+TdcQr7JukViT+2TN8Nc38oIrm5OCDvjvUQlGtoT/ooTPtm1lDlsrTHoU8aHa/fA72tY6RP33Jd+XUaRlFcLOIo3H/UW/+rXOnTGPVAX1LqTG1e1nksDx+SKN3qEVp2rVczXzmn6+kjyrQeFkT1UU2mr/cwSwgV9m+33hdmgV9WpBcFlePuxDHgGXS13TT73KONf2afXHbky6U8ee3c5njLrmRqiQYOCeOAzisbPghL5Mm5xsnlfHTMbTFRlssN0Tm39BIJJtI3X+wGdbE8kJ5YfRFEIVOhO9++Dgi2sreNnUXIuYxxtm503KiWiYQjTv2SvM4RfTcEMsfiy8HLsnf6XRO3rkZwoV/7bv21izn5os/Y9osEFLR/MV/YfU1ESsTYseZ+vJy0j2er8QatY6qufOGsIt9v8fvW1POv7hn0iQ1pOWpbjycJ9G09XQ8jUpNbIpHS2HaFQAukNFr5zpSjduo0Gn2AcuQsuHAUgbP2j22EGTGXbduHEizaA4c+EBEktnRSCSUz7TPXnoj52XZ8ShB4sTTXprjgCS3bPI0w9K3ZvjXwVx+3cPwJru8iT8JjhIuwh+bdHAvRF+27TPINIcQ5NX5UJkYT/SnRB0Zig0fzry7Gg/0X8wgCy8YPE/3AVp72KA7DPK2/JutJtZ2leWiYE78/RPzqzTWpqEYbr+Am3Z6o0GA3naRGX20k5hinjdVMITyrkQwGRa3qYDj6oaa6J1j0vbkeFb55A3lO0lKzgaHca6QkiBVcNidQcLfN7WCoVV/8j+lMEa5QMticQEEITT2ZmE478JhwQkmwaHMZ9BJs6g190VCSeFTifS+dtFUZ9LBymBr9Om9K3w1XWhysmgmxPng2CZfyawv6bqAylHaVjBfghxnYidika1aGFdbbds2E52EdqJ+ykKQ1zQEbL+wqmW81gR6m77rv6cR/E5xfxNGumfheB2Skz7pZtaSNghExffgAVl21G3DmSVcI8dKLOC/fj5/lpZqsy8/3A990ccNd49iWQS9BT9PNuPINRMvJNiygRk6KzezCt/3dUkyWtagnqJmr3q8CrsNtspdam1EQfjGLeUiIILUlgTgzoxfcUFnMO8ZbtUtdzORLKf7nvRV9nofWotL6kay8v5voCnFc7aREQrRTMoK6GGvpUSrV/o25Ubt9sNfyhVqyqLCEWhXILTmVs3m4lauDydYEoiX81PkN2UI0b5ZWVfm07czEDUiuddQMSWDj6veIZohftJVBYQl1Kh7UjJZtcnKFfFtRaxYVpFBjISgl89FyFrLezvYr6G3gEzUSF4SZWLVvXyhI89heBnEN+azW9YShX9toABsRQVirEtovkEeqXkIhUm7Pob/4FAm0sVsY+s479WKIvqidyhQVTVh5MAxf1TGFGE1YqkzZjgcfQKZCuYRCPHi209ZqO6J/AmYQlQlSHEeaJeTkIAi0s4JYbSjXQ5iIpRW0HdE/AW33UTV8j+dhRwat52ReAB+tCiqEAril+r4zGcTlwrlKz2CTbMcOulxBxKSVYnSM5rG2Mwl3MvgN6NGr6tloKisrvfqWiy8IUPevFKOxw22nV9ihDHo4YlG5pCgStyKEDs3ED2BYoTBtaAmtsJJTJXODEZMidrLBo+5ctV/A2FfBpMghrSy83/kKon5GhSaFn3tulHQKkkURFUkCla9rGfSQQ7Pj54xsoX7acBFOjo+M6Pyzyv+n++0XX0SApyvMN3Rnzrqv2IuS9rm//8u1DHpYDPf84CZLGMjSoNvMXUT/CmgNeVsB9cxc6/mSwsYN5w9n8eArQM3wyj8f1hd1mhhM2zOss6iH3Ey+MQG6dxrpKu/DjD4nBMJZ8z4YZGiNvP/FkEDbZuIHUP/zwXppMFYcr4YDGfRwRoK1hgEo8Y2VjzYl0AWLesjC8doRpgKUafGLIYFuVhB9aL7zHbp3qiYEUyXjRAa/MQKlHn5TJkyqKh6Mcx0qWIzoITLwGj7LBoaqNKmhHXS1gjgXzEZ7Ru4d4clc/eiWGU8inyjYW6pbEYDMxH5IaA35NL5Yezu+GpdIqGZrtwgaAyYl2KHAgVaIjeBsY/5v3S2vDcBN/LSBolGIIZr+WFS8C9w/04YKDsAC8MEhmBL/yVFhg+yuwq2sCsFuDFDprLiRIzAfvlSBgiLadC7gIK0OpQYAmUS29At1EhtHornLbBCSRcunlTwAlBpr8EH0y1dEYaAsL9ZBjarTR5dpH3E+eowELg2blQDT5nUSbAaTxyCwYaVSTfrnrNtdpbPWP4mh+0m94LQJVrgAT/HJFLA2XKMxMP0qQfz/PZSL/f9ApJvGBwqNjfiAwWfLxDDK4oQb6DlF3fIlslFFpk9F900i6M5lfwnsCvu9YdqAeyhkU95NepGnHTsQ2PiNBzrJWbcU7AxmwyyoSrl5J9ojoVfM26pXp38CnQ/WBAD1wfajwEiZnYz+60G4yZo18NnG8BWslgKWs+JGQt7jRsLXs0ICWIh1viAL/Z01vLyOZL1i9PohySHLQiDbwp65B5yv89/RpaAnk3W+wEN3Q7KH/DkswItgnS9A4XhIPg3fbAbCFdarAe7lakh+KR9Ug8wWuxSA2Q5Dii3YacMt9OzQGr78r8SH0ASwSh8I93pAMT4v2pAt2CAR1Cn8P5OnAck7vigE2LL+M7k2oLz4Oi7QSbM/ky9d6o9F7x1KzluxPQC6SaxVg/oiHkzdQtH1AAWb7duCWjcYSu1JVVuDPgQ7FPJ/NpT6oarFEQzmFQ2wDrcT+QZRA1bV1qDp5NdBIGgIdXzlHh2omvm+LbBV4hZIDqAXQ31uHnwxq3ahYrnpw/77adQERgbj4dibfPfeE6VxzhbUpHxHJBT/H6vdc1+bRgE/gIdK8L4GUPh3I9Rrb6LW3nboPfBMOrqKY3vsL9U8hApuJOPjNqjv7wzdY4+w3n4itEWfH0y6d+BvnfV5v2vX7eEhPRU/GO6O+f1j57364+Mk1C9poyXkBTcDSulxWmDH+y0WidFmN7SdU9HnDkWuJv/a/Z4ZHmg7p2K7KhT5/6sF/trDvicOSCxUWxXgFRH//9z73jUGyJwqSvjQVjy1Zv/7D6VAPpHqeDXIpE89OIQ9pDRwGK3qwoBM+uLetdsH7O7CkgzdvKISCagzX6sJg9jLTQDfu6JiF6h3X13CQezHF4EDk0oxPoCmE6hMszMVAkdnKiDg81OUXx5qCHj88TDOxYAQTmlSOrJQncC4xfRsE2Hfp/1LF4WD75VHUqNfoBUfyPk0L28Qjv1UvuEChuNsxVDOGHqgEAhUynqgGA9rXT2eE/UD8aQ09a2VcEZi/mEwZ33dIJ5KrHZ/UbpKXKMBnddGJejUXxylSgipvYABPZ65lxE3yKklIICCS/lZQzk3MSZuAdTocUdLSPrWwzj7kkoha+QcYbVCYjuHcH4pmT/W2RGFjoqVKL3ez6Clrx7Q+dTInTlIhvV9jnBKXj2gdfsfOi5Tard6PQs6pU9n19q0h9ZG7sH2eJ73THJ1hFZhA3dXMa5HT2eyRxPZmex6lxoj8eWCkD7O1V9s5UeV630inFVhf9Xt3Qhesic11S+WmnyO0pt8fbHp/RbkjcvPqVL3W4TbCV88VUcTd+AoRxFHur+j5FJ+Ht+X6jtKdCMVLCOqRRnMPTO6OYMMfSu1ARjEXUFz/V3P+IIxjaUfwH1Plb4pxdZY59LO3u/sMnHdBUOl9W36vXftqmfk7wiwp6DpLPZ4d967CX3iaXa6SqO/+w8Nc1nYXdDntn7usKxMQ2dltzyD7u8hLc1TkcJdH0b3yHd6l+y4TBvUBAQvSt3v+oru7gM+1UWjFKQY0BiWFTq403l82qbNHyo8zkwLey7v5f6q0zwM41YnX4kbAXQjkRcM8W71B8QVbHLoKY4y3txUeptAlEGz/roHFmIM56ZebwoxFj03PLyHyL80S4TaBXHnVWPmIrJozs4c0waRoDVWo08QuVBDH9U6iNQVv0lIgVp83tJ2T4IJAsKpb0UgeUnsuT+VGhGZY910oBRUQlM/sWEXVAHByN2mQZF4cteOKEdGubgWCKRvM+6BUyMqxdqaRe8g1I21Z2uDvDW6pZJ5giTx6rqH/RUxmeCyRqCsgNa4mm0KSSK2haEXQQrB27gbPzUkUwW2VcGCTtl/2u+6xCjEKy1vmFs/KTOTpAgnblk1kxQY3128VlYj1Nxj1wTSfX0NInodyAr2Z0c0BltZldGqjnlFIcsO7nz77njgy9oXxi6FX152v1juEb5I32TFUZMjl5enj7ktZg1y+fXcZ2cc+kDCpHjnlY103KZiismnLqJT2d3gP1ht23FrsSXaS5/oKE8U8EWX1XbTzFhlG568t9KdXcKg/agndut9YZbTHhX7tUx3/qIjH/EXGRnMAFxPH5HeWmbRx0ldHPe7jroTrfrgvKxzZjVHRV6XWk0qZR/5r4jrZoNYriu/TsMoiotFEUdRmNZ+tdZv3Jj2lfwK9Wlsg2mfxYTwoJ5gSxz6LpY4Xsde1++BzcUZfeuhlCx/7iywjrmDgKUFQlVHgilOQ2BPiGBmTyKnRo3+HaKYyaMefRxn7tNbLZCkxN46A6ybNA91jk3djF+n9VBUpw42aWnSTbssmzcP9Ygk3n+VKqfnUFb7+C9wphSjLIjzWe2vj4fVeHfL8px349XhuPbrWR4H2pcbNcY/kxTEqh4PTXkAAAAASUVORK5CYII=;" vertex="1" parent="1">
          <mxGeometry x="660" y="910" width="50" height="50" as="geometry" />
        </mxCell>
        <mxCell id="N7gpur8GiexcyIwk1VWw-9" value="" style="shape=image;verticalLabelPosition=bottom;labelBackgroundColor=default;verticalAlign=top;aspect=fixed;imageAspect=0;image=data:image/png,iVBORw0KGgoAAAANSUhEUgAAAOEAAADhCAMAAAAJbSJIAAAAdVBMVEX///8AAAD8/PyPj49NTU309PQkJCTExMTR0dF6enra2trt7e1KSkqysrL5+fm9vb3i4uKoqKgfHx/n5+dpaWlDQ0MsLCxxcXHX19eZmZkaGhq1tbU4ODhWVlZhYWESEhKGhoZ3d3epqamdnZ0zMzNaWlqKioqs9ymcAAAOV0lEQVR4nNVd62KqMAxmMgRBLirebzjc3v8Rz5zzaNI0baEF9v3cKjQ096St5znGKAvifFb76+NhNd6d397ezrvx6nBc+/Usj4Ns5HoCLpHE+6o8vPE4lF/7OOl7qg2wSculgrZXLMt00/eUDbCppwbEPTGt/wKVSbpuRN0D63TQHFvMjq3Iu+M4K/omhEYwa8abFKazoG9yBIQna+TdcQr7JukViT+2TN8Nc38oIrm5OCDvjvUQlGtoT/ooTPtm1lDlsrTHoU8aHa/fA72tY6RP33Jd+XUaRlFcLOIo3H/UW/+rXOnTGPVAX1LqTG1e1nksDx+SKN3qEVp2rVczXzmn6+kjyrQeFkT1UU2mr/cwSwgV9m+33hdmgV9WpBcFlePuxDHgGXS13TT73KONf2afXHbky6U8ee3c5njLrmRqiQYOCeOAzisbPghL5Mm5xsnlfHTMbTFRlssN0Tm39BIJJtI3X+wGdbE8kJ5YfRFEIVOhO9++Dgi2sreNnUXIuYxxtm503KiWiYQjTv2SvM4RfTcEMsfiy8HLsnf6XRO3rkZwoV/7bv21izn5os/Y9osEFLR/MV/YfU1ESsTYseZ+vJy0j2er8QatY6qufOGsIt9v8fvW1POv7hn0iQ1pOWpbjycJ9G09XQ8jUpNbIpHS2HaFQAukNFr5zpSjduo0Gn2AcuQsuHAUgbP2j22EGTGXbduHEizaA4c+EBEktnRSCSUz7TPXnoj52XZ8ShB4sTTXprjgCS3bPI0w9K3ZvjXwVx+3cPwJru8iT8JjhIuwh+bdHAvRF+27TPINIcQ5NX5UJkYT/SnRB0Zig0fzry7Gg/0X8wgCy8YPE/3AVp72KA7DPK2/JutJtZ2leWiYE78/RPzqzTWpqEYbr+Am3Z6o0GA3naRGX20k5hinjdVMITyrkQwGRa3qYDj6oaa6J1j0vbkeFb55A3lO0lKzgaHca6QkiBVcNidQcLfN7WCoVV/8j+lMEa5QMticQEEITT2ZmE478JhwQkmwaHMZ9BJs6g190VCSeFTifS+dtFUZ9LBymBr9Om9K3w1XWhysmgmxPng2CZfyawv6bqAylHaVjBfghxnYidika1aGFdbbds2E52EdqJ+ykKQ1zQEbL+wqmW81gR6m77rv6cR/E5xfxNGumfheB2Skz7pZtaSNghExffgAVl21G3DmSVcI8dKLOC/fj5/lpZqsy8/3A990ccNd49iWQS9BT9PNuPINRMvJNiygRk6KzezCt/3dUkyWtagnqJmr3q8CrsNtspdam1EQfjGLeUiIILUlgTgzoxfcUFnMO8ZbtUtdzORLKf7nvRV9nofWotL6kay8v5voCnFc7aREQrRTMoK6GGvpUSrV/o25Ubt9sNfyhVqyqLCEWhXILTmVs3m4lauDydYEoiX81PkN2UI0b5ZWVfm07czEDUiuddQMSWDj6veIZohftJVBYQl1Kh7UjJZtcnKFfFtRaxYVpFBjISgl89FyFrLezvYr6G3gEzUSF4SZWLVvXyhI89heBnEN+azW9YShX9toABsRQVirEtovkEeqXkIhUm7Pob/4FAm0sVsY+s479WKIvqidyhQVTVh5MAxf1TGFGE1YqkzZjgcfQKZCuYRCPHi209ZqO6J/AmYQlQlSHEeaJeTkIAi0s4JYbSjXQ5iIpRW0HdE/AW33UTV8j+dhRwat52ReAB+tCiqEAril+r4zGcTlwrlKz2CTbMcOulxBxKSVYnSM5rG2Mwl3MvgN6NGr6tloKisrvfqWiy8IUPevFKOxw22nV9ihDHo4YlG5pCgStyKEDs3ED2BYoTBtaAmtsJJTJXODEZMidrLBo+5ctV/A2FfBpMghrSy83/kKon5GhSaFn3tulHQKkkURFUkCla9rGfSQQ7Pj54xsoX7acBFOjo+M6Pyzyv+n++0XX0SApyvMN3Rnzrqv2IuS9rm//8u1DHpYDPf84CZLGMjSoNvMXUT/CmgNeVsB9cxc6/mSwsYN5w9n8eArQM3wyj8f1hd1mhhM2zOss6iH3Ey+MQG6dxrpKu/DjD4nBMJZ8z4YZGiNvP/FkEDbZuIHUP/zwXppMFYcr4YDGfRwRoK1hgEo8Y2VjzYl0AWLesjC8doRpgKUafGLIYFuVhB9aL7zHbp3qiYEUyXjRAa/MQKlHn5TJkyqKh6Mcx0qWIzoITLwGj7LBoaqNKmhHXS1gjgXzEZ7Ru4d4clc/eiWGU8inyjYW6pbEYDMxH5IaA35NL5Yezu+GpdIqGZrtwgaAyYl2KHAgVaIjeBsY/5v3S2vDcBN/LSBolGIIZr+WFS8C9w/04YKDsAC8MEhmBL/yVFhg+yuwq2sCsFuDFDprLiRIzAfvlSBgiLadC7gIK0OpQYAmUS29At1EhtHornLbBCSRcunlTwAlBpr8EH0y1dEYaAsL9ZBjarTR5dpH3E+eowELg2blQDT5nUSbAaTxyCwYaVSTfrnrNtdpbPWP4mh+0m94LQJVrgAT/HJFLA2XKMxMP0qQfz/PZSL/f9ApJvGBwqNjfiAwWfLxDDK4oQb6DlF3fIlslFFpk9F900i6M5lfwnsCvu9YdqAeyhkU95NepGnHTsQ2PiNBzrJWbcU7AxmwyyoSrl5J9ojoVfM26pXp38CnQ/WBAD1wfajwEiZnYz+60G4yZo18NnG8BWslgKWs+JGQt7jRsLXs0ICWIh1viAL/Z01vLyOZL1i9PohySHLQiDbwp65B5yv89/RpaAnk3W+wEN3Q7KH/DkswItgnS9A4XhIPg3fbAbCFdarAe7lakh+KR9Ug8wWuxSA2Q5Dii3YacMt9OzQGr78r8SH0ASwSh8I93pAMT4v2pAt2CAR1Cn8P5OnAck7vigE2LL+M7k2oLz4Oi7QSbM/ky9d6o9F7x1KzluxPQC6SaxVg/oiHkzdQtH1AAWb7duCWjcYSu1JVVuDPgQ7FPJ/NpT6oarFEQzmFQ2wDrcT+QZRA1bV1qDp5NdBIGgIdXzlHh2omvm+LbBV4hZIDqAXQ31uHnwxq3ahYrnpw/77adQERgbj4dibfPfeE6VxzhbUpHxHJBT/H6vdc1+bRgE/gIdK8L4GUPh3I9Rrb6LW3nboPfBMOrqKY3vsL9U8hApuJOPjNqjv7wzdY4+w3n4itEWfH0y6d+BvnfV5v2vX7eEhPRU/GO6O+f1j57364+Mk1C9poyXkBTcDSulxWmDH+y0WidFmN7SdU9HnDkWuJv/a/Z4ZHmg7p2K7KhT5/6sF/trDvicOSCxUWxXgFRH//9z73jUGyJwqSvjQVjy1Zv/7D6VAPpHqeDXIpE89OIQ9pDRwGK3qwoBM+uLetdsH7O7CkgzdvKISCagzX6sJg9jLTQDfu6JiF6h3X13CQezHF4EDk0oxPoCmE6hMszMVAkdnKiDg81OUXx5qCHj88TDOxYAQTmlSOrJQncC4xfRsE2Hfp/1LF4WD75VHUqNfoBUfyPk0L28Qjv1UvuEChuNsxVDOGHqgEAhUynqgGA9rXT2eE/UD8aQ09a2VcEZi/mEwZ33dIJ5KrHZ/UbpKXKMBnddGJejUXxylSgipvYABPZ65lxE3yKklIICCS/lZQzk3MSZuAdTocUdLSPrWwzj7kkoha+QcYbVCYjuHcH4pmT/W2RGFjoqVKL3ez6Clrx7Q+dTInTlIhvV9jnBKXj2gdfsfOi5Tard6PQs6pU9n19q0h9ZG7sH2eJ73THJ1hFZhA3dXMa5HT2eyRxPZmex6lxoj8eWCkD7O1V9s5UeV630inFVhf9Xt3Qhesic11S+WmnyO0pt8fbHp/RbkjcvPqVL3W4TbCV88VUcTd+AoRxFHur+j5FJ+Ht+X6jtKdCMVLCOqRRnMPTO6OYMMfSu1ARjEXUFz/V3P+IIxjaUfwH1Plb4pxdZY59LO3u/sMnHdBUOl9W36vXftqmfk7wiwp6DpLPZ4d967CX3iaXa6SqO/+w8Nc1nYXdDntn7usKxMQ2dltzyD7u8hLc1TkcJdH0b3yHd6l+y4TBvUBAQvSt3v+oru7gM+1UWjFKQY0BiWFTq403l82qbNHyo8zkwLey7v5f6q0zwM41YnX4kbAXQjkRcM8W71B8QVbHLoKY4y3txUeptAlEGz/roHFmIM56ZebwoxFj03PLyHyL80S4TaBXHnVWPmIrJozs4c0waRoDVWo08QuVBDH9U6iNQVv0lIgVp83tJ2T4IJAsKpb0UgeUnsuT+VGhGZY910oBRUQlM/sWEXVAHByN2mQZF4cteOKEdGubgWCKRvM+6BUyMqxdqaRe8g1I21Z2uDvDW6pZJ5giTx6rqH/RUxmeCyRqCsgNa4mm0KSSK2haEXQQrB27gbPzUkUwW2VcGCTtl/2u+6xCjEKy1vmFs/KTOTpAgnblk1kxQY3128VlYj1Nxj1wTSfX0NInodyAr2Z0c0BltZldGqjnlFIcsO7nz77njgy9oXxi6FX152v1juEb5I32TFUZMjl5enj7ktZg1y+fXcZ2cc+kDCpHjnlY103KZiismnLqJT2d3gP1ht23FrsSXaS5/oKE8U8EWX1XbTzFhlG568t9KdXcKg/agndut9YZbTHhX7tUx3/qIjH/EXGRnMAFxPH5HeWmbRx0ldHPe7jroTrfrgvKxzZjVHRV6XWk0qZR/5r4jrZoNYriu/TsMoiotFEUdRmNZ+tdZv3Jj2lfwK9Wlsg2mfxYTwoJ5gSxz6LpY4Xsde1++BzcUZfeuhlCx/7iywjrmDgKUFQlVHgilOQ2BPiGBmTyKnRo3+HaKYyaMefRxn7tNbLZCkxN46A6ybNA91jk3djF+n9VBUpw42aWnSTbssmzcP9Ygk3n+VKqfnUFb7+C9wphSjLIjzWe2vj4fVeHfL8px349XhuPbrWR4H2pcbNcY/kxTEqh4PTXkAAAAASUVORK5CYII=;" vertex="1" parent="1">
          <mxGeometry x="760" y="910" width="50" height="50" as="geometry" />
        </mxCell>
        <mxCell id="N7gpur8GiexcyIwk1VWw-10" value="" style="shape=image;verticalLabelPosition=bottom;labelBackgroundColor=default;verticalAlign=top;aspect=fixed;imageAspect=0;image=data:image/png,iVBORw0KGgoAAAANSUhEUgAAAOEAAADhCAMAAAAJbSJIAAAAdVBMVEX///8AAAD8/PyPj49NTU309PQkJCTExMTR0dF6enra2trt7e1KSkqysrL5+fm9vb3i4uKoqKgfHx/n5+dpaWlDQ0MsLCxxcXHX19eZmZkaGhq1tbU4ODhWVlZhYWESEhKGhoZ3d3epqamdnZ0zMzNaWlqKioqs9ymcAAAOV0lEQVR4nNVd62KqMAxmMgRBLirebzjc3v8Rz5zzaNI0baEF9v3cKjQ096St5znGKAvifFb76+NhNd6d397ezrvx6nBc+/Usj4Ns5HoCLpHE+6o8vPE4lF/7OOl7qg2wSculgrZXLMt00/eUDbCppwbEPTGt/wKVSbpuRN0D63TQHFvMjq3Iu+M4K/omhEYwa8abFKazoG9yBIQna+TdcQr7JukViT+2TN8Nc38oIrm5OCDvjvUQlGtoT/ooTPtm1lDlsrTHoU8aHa/fA72tY6RP33Jd+XUaRlFcLOIo3H/UW/+rXOnTGPVAX1LqTG1e1nksDx+SKN3qEVp2rVczXzmn6+kjyrQeFkT1UU2mr/cwSwgV9m+33hdmgV9WpBcFlePuxDHgGXS13TT73KONf2afXHbky6U8ee3c5njLrmRqiQYOCeOAzisbPghL5Mm5xsnlfHTMbTFRlssN0Tm39BIJJtI3X+wGdbE8kJ5YfRFEIVOhO9++Dgi2sreNnUXIuYxxtm503KiWiYQjTv2SvM4RfTcEMsfiy8HLsnf6XRO3rkZwoV/7bv21izn5os/Y9osEFLR/MV/YfU1ESsTYseZ+vJy0j2er8QatY6qufOGsIt9v8fvW1POv7hn0iQ1pOWpbjycJ9G09XQ8jUpNbIpHS2HaFQAukNFr5zpSjduo0Gn2AcuQsuHAUgbP2j22EGTGXbduHEizaA4c+EBEktnRSCSUz7TPXnoj52XZ8ShB4sTTXprjgCS3bPI0w9K3ZvjXwVx+3cPwJru8iT8JjhIuwh+bdHAvRF+27TPINIcQ5NX5UJkYT/SnRB0Zig0fzry7Gg/0X8wgCy8YPE/3AVp72KA7DPK2/JutJtZ2leWiYE78/RPzqzTWpqEYbr+Am3Z6o0GA3naRGX20k5hinjdVMITyrkQwGRa3qYDj6oaa6J1j0vbkeFb55A3lO0lKzgaHca6QkiBVcNidQcLfN7WCoVV/8j+lMEa5QMticQEEITT2ZmE478JhwQkmwaHMZ9BJs6g190VCSeFTifS+dtFUZ9LBymBr9Om9K3w1XWhysmgmxPng2CZfyawv6bqAylHaVjBfghxnYidika1aGFdbbds2E52EdqJ+ykKQ1zQEbL+wqmW81gR6m77rv6cR/E5xfxNGumfheB2Skz7pZtaSNghExffgAVl21G3DmSVcI8dKLOC/fj5/lpZqsy8/3A990ccNd49iWQS9BT9PNuPINRMvJNiygRk6KzezCt/3dUkyWtagnqJmr3q8CrsNtspdam1EQfjGLeUiIILUlgTgzoxfcUFnMO8ZbtUtdzORLKf7nvRV9nofWotL6kay8v5voCnFc7aREQrRTMoK6GGvpUSrV/o25Ubt9sNfyhVqyqLCEWhXILTmVs3m4lauDydYEoiX81PkN2UI0b5ZWVfm07czEDUiuddQMSWDj6veIZohftJVBYQl1Kh7UjJZtcnKFfFtRaxYVpFBjISgl89FyFrLezvYr6G3gEzUSF4SZWLVvXyhI89heBnEN+azW9YShX9toABsRQVirEtovkEeqXkIhUm7Pob/4FAm0sVsY+s479WKIvqidyhQVTVh5MAxf1TGFGE1YqkzZjgcfQKZCuYRCPHi209ZqO6J/AmYQlQlSHEeaJeTkIAi0s4JYbSjXQ5iIpRW0HdE/AW33UTV8j+dhRwat52ReAB+tCiqEAril+r4zGcTlwrlKz2CTbMcOulxBxKSVYnSM5rG2Mwl3MvgN6NGr6tloKisrvfqWiy8IUPevFKOxw22nV9ihDHo4YlG5pCgStyKEDs3ED2BYoTBtaAmtsJJTJXODEZMidrLBo+5ctV/A2FfBpMghrSy83/kKon5GhSaFn3tulHQKkkURFUkCla9rGfSQQ7Pj54xsoX7acBFOjo+M6Pyzyv+n++0XX0SApyvMN3Rnzrqv2IuS9rm//8u1DHpYDPf84CZLGMjSoNvMXUT/CmgNeVsB9cxc6/mSwsYN5w9n8eArQM3wyj8f1hd1mhhM2zOss6iH3Ey+MQG6dxrpKu/DjD4nBMJZ8z4YZGiNvP/FkEDbZuIHUP/zwXppMFYcr4YDGfRwRoK1hgEo8Y2VjzYl0AWLesjC8doRpgKUafGLIYFuVhB9aL7zHbp3qiYEUyXjRAa/MQKlHn5TJkyqKh6Mcx0qWIzoITLwGj7LBoaqNKmhHXS1gjgXzEZ7Ru4d4clc/eiWGU8inyjYW6pbEYDMxH5IaA35NL5Yezu+GpdIqGZrtwgaAyYl2KHAgVaIjeBsY/5v3S2vDcBN/LSBolGIIZr+WFS8C9w/04YKDsAC8MEhmBL/yVFhg+yuwq2sCsFuDFDprLiRIzAfvlSBgiLadC7gIK0OpQYAmUS29At1EhtHornLbBCSRcunlTwAlBpr8EH0y1dEYaAsL9ZBjarTR5dpH3E+eowELg2blQDT5nUSbAaTxyCwYaVSTfrnrNtdpbPWP4mh+0m94LQJVrgAT/HJFLA2XKMxMP0qQfz/PZSL/f9ApJvGBwqNjfiAwWfLxDDK4oQb6DlF3fIlslFFpk9F900i6M5lfwnsCvu9YdqAeyhkU95NepGnHTsQ2PiNBzrJWbcU7AxmwyyoSrl5J9ojoVfM26pXp38CnQ/WBAD1wfajwEiZnYz+60G4yZo18NnG8BWslgKWs+JGQt7jRsLXs0ICWIh1viAL/Z01vLyOZL1i9PohySHLQiDbwp65B5yv89/RpaAnk3W+wEN3Q7KH/DkswItgnS9A4XhIPg3fbAbCFdarAe7lakh+KR9Ug8wWuxSA2Q5Dii3YacMt9OzQGr78r8SH0ASwSh8I93pAMT4v2pAt2CAR1Cn8P5OnAck7vigE2LL+M7k2oLz4Oi7QSbM/ky9d6o9F7x1KzluxPQC6SaxVg/oiHkzdQtH1AAWb7duCWjcYSu1JVVuDPgQ7FPJ/NpT6oarFEQzmFQ2wDrcT+QZRA1bV1qDp5NdBIGgIdXzlHh2omvm+LbBV4hZIDqAXQ31uHnwxq3ahYrnpw/77adQERgbj4dibfPfeE6VxzhbUpHxHJBT/H6vdc1+bRgE/gIdK8L4GUPh3I9Rrb6LW3nboPfBMOrqKY3vsL9U8hApuJOPjNqjv7wzdY4+w3n4itEWfH0y6d+BvnfV5v2vX7eEhPRU/GO6O+f1j57364+Mk1C9poyXkBTcDSulxWmDH+y0WidFmN7SdU9HnDkWuJv/a/Z4ZHmg7p2K7KhT5/6sF/trDvicOSCxUWxXgFRH//9z73jUGyJwqSvjQVjy1Zv/7D6VAPpHqeDXIpE89OIQ9pDRwGK3qwoBM+uLetdsH7O7CkgzdvKISCagzX6sJg9jLTQDfu6JiF6h3X13CQezHF4EDk0oxPoCmE6hMszMVAkdnKiDg81OUXx5qCHj88TDOxYAQTmlSOrJQncC4xfRsE2Hfp/1LF4WD75VHUqNfoBUfyPk0L28Qjv1UvuEChuNsxVDOGHqgEAhUynqgGA9rXT2eE/UD8aQ09a2VcEZi/mEwZ33dIJ5KrHZ/UbpKXKMBnddGJejUXxylSgipvYABPZ65lxE3yKklIICCS/lZQzk3MSZuAdTocUdLSPrWwzj7kkoha+QcYbVCYjuHcH4pmT/W2RGFjoqVKL3ez6Clrx7Q+dTInTlIhvV9jnBKXj2gdfsfOi5Tard6PQs6pU9n19q0h9ZG7sH2eJ73THJ1hFZhA3dXMa5HT2eyRxPZmex6lxoj8eWCkD7O1V9s5UeV630inFVhf9Xt3Qhesic11S+WmnyO0pt8fbHp/RbkjcvPqVL3W4TbCV88VUcTd+AoRxFHur+j5FJ+Ht+X6jtKdCMVLCOqRRnMPTO6OYMMfSu1ARjEXUFz/V3P+IIxjaUfwH1Plb4pxdZY59LO3u/sMnHdBUOl9W36vXftqmfk7wiwp6DpLPZ4d967CX3iaXa6SqO/+w8Nc1nYXdDntn7usKxMQ2dltzyD7u8hLc1TkcJdH0b3yHd6l+y4TBvUBAQvSt3v+oru7gM+1UWjFKQY0BiWFTq403l82qbNHyo8zkwLey7v5f6q0zwM41YnX4kbAXQjkRcM8W71B8QVbHLoKY4y3txUeptAlEGz/roHFmIM56ZebwoxFj03PLyHyL80S4TaBXHnVWPmIrJozs4c0waRoDVWo08QuVBDH9U6iNQVv0lIgVp83tJ2T4IJAsKpb0UgeUnsuT+VGhGZY910oBRUQlM/sWEXVAHByN2mQZF4cteOKEdGubgWCKRvM+6BUyMqxdqaRe8g1I21Z2uDvDW6pZJ5giTx6rqH/RUxmeCyRqCsgNa4mm0KSSK2haEXQQrB27gbPzUkUwW2VcGCTtl/2u+6xCjEKy1vmFs/KTOTpAgnblk1kxQY3128VlYj1Nxj1wTSfX0NInodyAr2Z0c0BltZldGqjnlFIcsO7nz77njgy9oXxi6FX152v1juEb5I32TFUZMjl5enj7ktZg1y+fXcZ2cc+kDCpHjnlY103KZiismnLqJT2d3gP1ht23FrsSXaS5/oKE8U8EWX1XbTzFhlG568t9KdXcKg/agndut9YZbTHhX7tUx3/qIjH/EXGRnMAFxPH5HeWmbRx0ldHPe7jroTrfrgvKxzZjVHRV6XWk0qZR/5r4jrZoNYriu/TsMoiotFEUdRmNZ+tdZv3Jj2lfwK9Wlsg2mfxYTwoJ5gSxz6LpY4Xsde1++BzcUZfeuhlCx/7iywjrmDgKUFQlVHgilOQ2BPiGBmTyKnRo3+HaKYyaMefRxn7tNbLZCkxN46A6ybNA91jk3djF+n9VBUpw42aWnSTbssmzcP9Ygk3n+VKqfnUFb7+C9wphSjLIjzWe2vj4fVeHfL8px349XhuPbrWR4H2pcbNcY/kxTEqh4PTXkAAAAASUVORK5CYII=;" vertex="1" parent="1">
          <mxGeometry x="900" y="910" width="50" height="50" as="geometry" />
        </mxCell>
        <mxCell id="N7gpur8GiexcyIwk1VWw-11" value="&lt;font face=&quot;宋体&quot; style=&quot;font-size: 31px;&quot;&gt;...&lt;/font&gt;" style="text;html=1;strokeColor=none;fillColor=none;align=center;verticalAlign=middle;whiteSpace=wrap;rounded=0;" vertex="1" parent="1">
          <mxGeometry x="827" y="910" width="60" height="30" as="geometry" />
        </mxCell>
        <mxCell id="N7gpur8GiexcyIwk1VWw-13" value="数据采集" style="rounded=1;whiteSpace=wrap;html=1;" vertex="1" parent="1">
          <mxGeometry x="670" y="715" width="80" height="40" as="geometry" />
        </mxCell>
        <mxCell id="N7gpur8GiexcyIwk1VWw-14" value="&lt;font face=&quot;宋体&quot;&gt;感知层&lt;/font&gt;" style="text;html=1;align=center;verticalAlign=middle;resizable=0;points=[];autosize=1;strokeColor=none;fillColor=none;" vertex="1" parent="1">
          <mxGeometry x="600" y="900.0000000000002" width="60" height="30" as="geometry" />
        </mxCell>
        <mxCell id="N7gpur8GiexcyIwk1VWw-15" value="数据解析" style="rounded=1;whiteSpace=wrap;html=1;" vertex="1" parent="1">
          <mxGeometry x="770" y="715" width="80" height="40" as="geometry" />
        </mxCell>
        <mxCell id="N7gpur8GiexcyIwk1VWw-16" value="" style="shape=flexArrow;endArrow=classic;html=1;rounded=0;endWidth=6.815414315414315;endSize=2.490384615384615;width=5.55984555984556;entryX=0;entryY=0.5;entryDx=0;entryDy=0;" edge="1" parent="1" target="N7gpur8GiexcyIwk1VWw-15">
          <mxGeometry width="50" height="50" relative="1" as="geometry">
            <mxPoint x="750" y="734.76" as="sourcePoint" />
            <mxPoint x="800" y="734.76" as="targetPoint" />
          </mxGeometry>
        </mxCell>
        <mxCell id="N7gpur8GiexcyIwk1VWw-17" value="&lt;font face=&quot;宋体&quot;&gt;数据处理层&lt;/font&gt;" style="text;html=1;align=center;verticalAlign=middle;resizable=0;points=[];autosize=1;strokeColor=none;fillColor=none;" vertex="1" parent="1">
          <mxGeometry x="600" y="700.0000000000002" width="80" height="30" as="geometry" />
        </mxCell>
        <mxCell id="N7gpur8GiexcyIwk1VWw-18" value="原子规则" style="rounded=1;whiteSpace=wrap;html=1;" vertex="1" parent="1">
          <mxGeometry x="670" y="520" width="80" height="40" as="geometry" />
        </mxCell>
        <mxCell id="N7gpur8GiexcyIwk1VWw-19" value="复杂规则" style="rounded=1;whiteSpace=wrap;html=1;" vertex="1" parent="1">
          <mxGeometry x="770" y="520" width="80" height="40" as="geometry" />
        </mxCell>
        <mxCell id="N7gpur8GiexcyIwk1VWw-20" value="" style="shape=flexArrow;endArrow=classic;html=1;rounded=0;endWidth=6.815414315414315;endSize=2.490384615384615;width=5.55984555984556;entryX=0;entryY=0.5;entryDx=0;entryDy=0;" edge="1" parent="1" target="N7gpur8GiexcyIwk1VWw-19">
          <mxGeometry width="50" height="50" relative="1" as="geometry">
            <mxPoint x="750" y="539.76" as="sourcePoint" />
            <mxPoint x="800" y="539.76" as="targetPoint" />
          </mxGeometry>
        </mxCell>
        <mxCell id="N7gpur8GiexcyIwk1VWw-21" value="&lt;font face=&quot;宋体&quot;&gt;规则引擎层&lt;/font&gt;" style="text;html=1;align=center;verticalAlign=middle;resizable=0;points=[];autosize=1;strokeColor=none;fillColor=none;" vertex="1" parent="1">
          <mxGeometry x="600" y="505.0000000000002" width="80" height="30" as="geometry" />
        </mxCell>
        <mxCell id="N7gpur8GiexcyIwk1VWw-23" value="产生报警" style="rounded=1;whiteSpace=wrap;html=1;" vertex="1" parent="1">
          <mxGeometry x="870" y="520" width="80" height="40" as="geometry" />
        </mxCell>
        <mxCell id="N7gpur8GiexcyIwk1VWw-24" value="" style="shape=flexArrow;endArrow=classic;html=1;rounded=0;endWidth=6.815414315414315;endSize=2.490384615384615;width=5.55984555984556;entryX=0;entryY=0.5;entryDx=0;entryDy=0;" edge="1" parent="1" target="N7gpur8GiexcyIwk1VWw-23">
          <mxGeometry width="50" height="50" relative="1" as="geometry">
            <mxPoint x="850" y="539.76" as="sourcePoint" />
            <mxPoint x="900" y="539.76" as="targetPoint" />
          </mxGeometry>
        </mxCell>
        <mxCell id="N7gpur8GiexcyIwk1VWw-26" value="" style="shape=flexArrow;endArrow=classic;startArrow=classic;html=1;rounded=0;endWidth=6.577678902484243;endSize=2.0272;startWidth=6.577678902484243;startSize=2.6121827411167513;width=4.67005076142132;" edge="1" parent="1">
          <mxGeometry width="100" height="100" relative="1" as="geometry">
            <mxPoint x="785" y="480" as="sourcePoint" />
            <mxPoint x="784.71" y="505" as="targetPoint" />
          </mxGeometry>
        </mxCell>
        <mxCell id="N7gpur8GiexcyIwk1VWw-28" value="" style="rounded=0;whiteSpace=wrap;html=1;" vertex="1" parent="1">
          <mxGeometry x="600" y="800" width="370" height="70" as="geometry" />
        </mxCell>
        <mxCell id="N7gpur8GiexcyIwk1VWw-30" value="" style="shape=image;verticalLabelPosition=bottom;labelBackgroundColor=default;verticalAlign=top;aspect=fixed;imageAspect=0;image=data:image/png,iVBORw0KGgoAAAANSUhEUgAAAOEAAADhCAMAAAAJbSJIAAAAe1BMVEX///8AAACSkpJcXFze3t52dnbNzc2ZmZmPj49ERERnZ2cYGBjc3Nz5+fmIiIjAwMCxsbHV1dXk5OSqqqrz8/O3t7fGxsbs7OxtbW1VVVVbW1uDg4OhoaE7OzsODg5jY2MoKChMTEwgICA2NjZ0dHQ3NzcuLi4LCwscHBwKv5qmAAAHN0lEQVR4nO2c6XqiMBSGExdcRhEQxQVFbGt7/1c4hAQIAgFbEcPzvT+mSDIhnyfLyUmQEAAAAAAAAAAAAAAAAAAAAAAAAAAAAAAAAAAAAAAAAPCu+LPzabzquhYtMqQc0+26Ji2xpfS04xqnXdelHcY0iP41uCUXXdemDeZ0EP/1PpnETce1aYMJvYgr54M31stu7XRYoafjSYYLaMrU67JSz+VIaTqKbvzj7nDiGo9dVuq5fNPL3Z0tN2ZvOqVD6e7+nmsyifu+TJEWpUWXxo3H1r64OtGMvyzeta+RxM/X16YVrvG0zxgcpUGUNdVbP1rqgtIRv5pSKkk0WEsddVOnJxPQsbja0bl0371FEo0uavRsNpSKKzenkJB9T8Ybl9KtuNzZ+aRdTySG1aPmZz8aqpU20yLMivr74kuVnUJaOmFqRjaalhDN/eHrqtISW0UzZUsssVDWGUrX1YmrPoQ41iojsgH138uq0hbqRS+LN76sKi2xUs7s2z5MGUHm2JSw78N4Gqr6mteHwWZFvxWp45Joh26ESglODzybmkXEiVL/VVVpB1s5I8beuaoVa8CkLgqs/UpxpposGBNKT6+pSktI4f1yoiUWtdVZ3hqnphuSOLwY1OV5Y4z6Jujq7bpt6L42j96zvkWH4qp6wGSum747ixY98AtHEbI56GzEVdIPVfsxts5GNMRYOlD6nx9UFbJ6bzwhjO3GTCpzsZWwtttRfDpfxDvc1bkiIx5eVqUns49NF/nXh4si7sa+gVBT93RNryT2WwYblRGnzMZnRejxfXHjZhqwBYSqJxLryo/6abgcDphX88XCMWv1ct7x4/NT+tnRYZXmc0XtnDBim/wn7abGqIvN+EC6aBBYi5aL1HpBrZ7KgSZ7MGt6q83tfWnow03S4P1ANdgkRP7PRbuWmjJtshRcnHVe9vu1a36GqfMRv+28Pk88KOlrRadmxvOMzdpfHzT2xYmnaICrXXakWNsFlUJiKu92MFca+m/1xOqCfp15z+PrHVhswk3niE0jWHT4IbfU8ee382VXuTfiDsJ/P3uzZu+kvGjbKEHKsHTsHLnWx3OXNEgvcmfoV+ON7/Rljoq48yodmB+cXa09LSfJsB3/FBM/zPRkML9ReiIqeGCikKaWUomG9PRHZtdNhTwaByxYwSXyOKEnKyz3wuPir01641IuuqwhnqX0B3aap5UChUK/OkOyQFQpJO6YJTY4CT6SCy7ZAVrJ6c39B9nyBWozSOFTRdjGOzaSKBQG8ncnw19FuoQPKjyI2lXOW+IVJ/ppy03f3YaSrBqFUQM0G/QcodDmfwrLZnFfDBrNFfL/Vn0czRUCi57ZPL5/ygpRroa9y7muKkJhbHFa/EaEbcnsVwqrnWce3i4LV3hZS26gkL0AV+OaCoWOV1qcl9iiJYUlG9fLBxWSbc3uqlA4SnpOPlVY1sspHMUUB+rRNoZklatVOCymPKyQ2OqumCq0SyolnjYnOYX8ZnEiPkrf0SsV1pAqJPxd3A85UcxZi7zCc8WD4xcHxRnDpHVX0YlCMfPJrhm/MyOPK7ykxZbTiULynTTJBOF4sZ4lK/zXQGHiswX+OmGzlSbHbhSu+WXWb2/x5x/yC4VJp7xjnqwrulEoSkx/wUE4VtavFObdvYwPp0uF06xwxl76+Gg/ZGwOpRq3HSp0JaPxg7k0mRV+o5CVvrISBvNEotedwvhtuMjN5iljnrIsKPxurjDPLqtyVwqF2QzpScJRe4pCkhXZlUISZs8d8AQxwj9H4b/uFYrh00uLT7zaotf2RIXWxI+YWK9QKHwRMz7bkjbY9hSKtYX8ix9tK9wk5fMwUbp+a0nhRSSIZSjzp9x7hX99+/BOoSjVEs01XRwUFRa96lqFbmYqsfBMwybCBQoTzyp2pLhp/3qC/V4hX0583a8WZYXDfOVSpjUK7av4+tiHbyEx6QZiGXOyMmsmg938bxH8e4XCQpwsephbAYvU0JzI+PtMoRsO7wnTUmVFUf7dmGFe5AdzxyeLdM4Od6UdjmQ924fkZBO/5kxGQaEpPSfLlotiVLicNFPoKTLkJqYKRKUVIcdokF/MyfIckJ/ckraBQilELAWA83Ea51TyTFmhW5k8S5vcuLqMdBQb3RQK7YAs94E1qTl9U1CYhDPyoUUuKTuivDhWxeSVNhzKuzKLeUUueQvf2JXnicYke0iWM4O6NW8Je+YgwpQ7szuNLHbN70X50yjXNB/EWRgrme0wU7iMS80zsYo7O8baHAvMgW+thMnyuweesfHvC5uu48MMywkZkNe9JHzMFP6a9/61r2coTIKa73lmjY9Gf52gP9OR5N1YirHxz71CRBrOHR4FOs5LSOePPhwhUEyGur/pKZhV6/vuwS8CEYUNZ9odTK7An5YwWBu9PGIGAAAAAAAAAAAAAAAAAAAAAAAAAAAAAAAAAAAAAAAAAAAAAADAS/gPkHRQklJVFuYAAAAASUVORK5CYII=;" vertex="1" parent="1">
          <mxGeometry x="695" y="802.5" width="65" height="65" as="geometry" />
        </mxCell>
        <mxCell id="N7gpur8GiexcyIwk1VWw-31" value="" style="shape=image;verticalLabelPosition=bottom;labelBackgroundColor=default;verticalAlign=top;aspect=fixed;imageAspect=0;image=data:image/png,iVBORw0KGgoAAAANSUhEUgAAAOEAAADhCAMAAAAJbSJIAAAAgVBMVEX///8AAACWlpbf399cXFz6+vr29vbv7+/b29vk5OQrKyvIyMjMzMyenp7r6+u5ubnR0dHAwMCsrKxLS0vW1tY+Pj6MjIxTU1NwcHAfHx9ZWVlra2uAgIB6enqhoaHBwcE1NTUXFxdCQkIMDAyPj48kJCSysrJjY2MvLy9sbGx9fX0YY/0PAAAOs0lEQVR4nO1d6ZqqMAwVFXBH0XEXl1Gc6/s/4HUnaZPQOgo4n+ffjCw9pE3TJE1LpQ8++OCDDz744IMnoVN2vmI371a8Dsupc8ahlndLXoKj+BKswj8nyN7IUbD4S4Ksb1V6f0uQgSa+BONB3q37NepDnt5fEGTQP7PY7USSbyvIRHyNUmsvcvyJ3lCQwQYwCEslN1rh3jmO4fThzLp5t9gK9TmW0fr839r1v41FODjKrKYIchd5OTfbGEh8F8S3nw5h7dohQ6K3zlq5NdoclTnRcsfRrjuQlzm7tp9Doy1AiO+I6TZQOqDXpwmesC+uIAnxTfblJiWUcMIzPA7bYgoy1sQX1IQ5YLCQOBZPkDWqvd+7zWwxbAfLbt3zCLKx0FWPdxdJkOGXKI8Lmrerm4PKre2d8rcoyCbzwmyR0t3uWF2vv1o331/78bwdNKvyXeVOjtROcMOV3EKA5ekGTxb3j/6vap6C7I6N6Tkn6/SobqUL+gHdI75zEqQXKR98tdhGYRi2h+MNPbp6pabAb1i/PJfsFtNl5vy6/1ALqmEF/ewvh/qM9xWx9EYBvJsU5DZLQfoRXvCVSZO5OxUkhnATXwI3bBCfIStBtmb4xSt2SdA1oTfqMTfP9GszEWSsjrFvwXBxCUkgTCQl4rXX+h39Cn/Dc6C9MpKuHqQwTLPNmnpP3zyRDAntjYF4uWizHNFIcUS5mvvj65lsKGhtHNtdrmOu6Zk7uoR7J3uGohBpV7CKPqlsvIh00eXA0CmzF7eNCDons0VdSNQ4eykPhs4uIAfTQFwdqUDOtoA3X3Nh6OhGTalWJqxoGTetI/vJ82J4Qn/RjsI4jsPyWAhViDhUSsuUe/NkmA3ehuFmnGbvvCXDyaY6b8etmv+LJxWS4a662MbLgY80blrY7S0Yjtthr1anzTL/QYLFYtgXzB3a+f9uDB3e6Ow8SrBwDDmj08qHhbAqHEPK6CzVHyZYSIZHVJWlrhz0fkeGpwgv0Kmi2zTtQa9mGK8fbluSc/Go2XqC7FN4CtJCDQJWl2h3mveGR1aeYb8sBjhFzI+rLDJQnI61rrFeiF8Ism/m2lCRfYTGbz8uSGtMMhVfgpRMp6chz5C3T7mln4tJ7tHu1wqyGDlEfjvNs/0gJlHe4kugxqOegXE+uXwuEwsr+dFTVesuZGJ2Xvtl3K4Q9ks8T5Cs+Lr/rnmOL8SpAWyaPRNqsEODFV90cs81Xkbtiksr+Ozs3wpywaVE3zIHMmLoCNnZvxAk++HAKM+O4Sk7m4vg2yXa3MCKD/WLLBke8Y9TCZcxYwFWgalKOmOGxxeyghxYCHLO6S59WGfO0BEMYzc0irBtYuZ+0urNg+EpO/txQc659BFGK+fD0JEEGQnpi4L4OBMpN4aSk4ET5IETnxQlzZGhI3gaPH1EsuLryF6OfBlK2dlYkOzo07diFoyhI2Rne7eEQ1Z8qXv5isHQEbKzT4LkxWeUnVIMhoLrltqWcIKJ+ArF8Igtn6+mITBPLioQQz45VoGx+M54eWTG0tetJzirsBDfGYtXM6Q3AAmQgvnaVsxUpH+xZ8CNTXYBwWYx2pPey8dD/FhPRsVSkBu9bcxWTB7ZiC+BtSDxNGgtPjOl9WTYDqL7Mt5WfN/D/PZ32YritJrQt2LKyGwjCQO7yey4xrK8fFuE0IXtjGaOaTG2WJbsBWmEbMP26Uhd11kit42VtREb8+psnxZG5MXnRfsXMbuhIsYtl8Yb8iTw4jvtZ6u+htgdl3wtPvac4mRJB+8GubrRs2Eolj34jSD5rIv7ptWsGDqiIMtk8x8XnwuiIBkyFMseLK1zpgTxIed3pgzFdlkJku/0WhAra4biiDRNfuP7O7EZOHuGjiRIXy58ccKOnXzoYHIuDH8hSDbESu7lzpGhI83TfnnNiY8Lynl8dk5+DEVTuUkkv/E5T2IaQJ4MHVGQOCDI16BLS67KmaGY65pkMfJ1BNPTcXJn6EiC9E6C5LONjLJVi8BQFuQvxFcgho71CtY8a7wwDMntThxs8oxfzdBuV52RIC2T/mcvZliKzUtfnZFW46lluQgZZ+CeMi1fdkOV9+iy1g6DHy719OmwjVnQgrTdd5NtfeyaZehBi+vbii+Pisq28QdY44moHSQirzr1FUtX9zWu72/XVrfle9aAbcxiW7cVH5t+kxleErO4gYgd5wKzZCZ7cPH/PNB5viCzTEsww3ODT1mnJZjhacGn4okvga2ipFBM8SXwfyfIUYHFlyCtltX7ii9BSo1nRny5JAU9DtsRaZONWhRYCDLvpKDHYbQCzLZC8NORKsgcqjw/HVTM4opi5HQ9AUw4+C+IL4EmyKLldD0BqPJCcVLynoura/sPii+B357ketbBBx988MHfh1uvdVvLXhDHUXk7fIvVviWWyOpRS7178XA2Gr/PAXsU8HmByrES96jlMJ/GPQW4qinaDu2BJD75NIZCw0MM0ThEIdkwrwb+HoghtO6UQxZya+CvgfwBMLVIWXq978IS5XmAwJN66NDLK5q9DCOGoXpm6fuqU5RXChyo6mFf7ytDlKkDfIyqDN/X3EEpLMARoJ5I9752DfLJgQQMFxN8fdGBlwGNN/gD3i/2viLE4w39Am2a9zrBGyNgGZbu6R7f73rW/Bk9nmGpN504zqT6vmr0DInhEd4bD8ArmjLDP4C/z7AFCL68mu4DqLeCdjsKg5ZNSN6v1er3Y5Igw8kDLejUukcMamZBZb/eSk6Lax3O2noyHTbpXM/WEGXvTSODpLtau3rP0u/PT3sY4SqJrAfldipN9Qy7awO2ozVswWR0CJm020orKM+nF7fI1d0Vo+0Ce42jR4WyV7Jed/UNXG3kioI1vfxBMy7P99flox7aYQsCUR8DbRk5G4AdNdtZvYU7x/FLSF1WVwtn7ODq6QdcjVugTvkdPoxOdjjUxhJxoIji6qoI+0G4dVzHYNPGClyP0+aVDxcwDzjim3w7ShChtgHhooekMO6gVwHS8dwkQ/wSrMikLeN0DQ10h+fqt9VNn3/CnHiD8NEB4Nlc+JOgCLLYgC3JEFlOFX3HHJqn+LPEb9B9m8vUe86AJxtjVzEcXHJ3oJVd2nFaY+PnX6BOjqa73yBDfNAefJr8DHrK8uSb4DBUTvgbhd2OW29FOK9dPWWaUEyNL2LjPbqPY6hpgfVkAmYuxlJPqVANZIKojJIfBqjBePpSZ65q7zKs/K6SDI8Yos8C/g9f1GgProz8erA9OSY5s0hOmwTDMIb/Ry5MF05gffiLMvdsUB9GoxqdAoi+ZfJv2OM1ndbcc5sxqY0F/fFi8e/8mmQYIjWrPB/9BlngufugNopjiBypyb9BJ10RTLjNRJqJklT0q7TXiW6EelormwrlC+Z9rJq06QpKGDGEUz6YxoEwbNzg6nSF9f39uyAx6c4hMN5BN0W9TV8fQT2OGEJfGxhdYFBTEy8HJQzC1S2Baqyv/wy/+v2fOMirW9BQOSOGsF+B/jIm/5sK3Az24HRoWhLVq2FPuE9LyL4kDhT1uJ9hp18l/4bPswibou3abNVeZBgQ8w5Uc3dhoW9HBAFZhj36B6QyLEYivI39MlCzq5O62tjbQ9BUQdn9cGwjhtDSA2/Dc883VwhdZMgu1eGsSX498PstqwJZyeSyA+inFfw/1MFw0DsKuMN5BYbsIhau6kPX79QrtcGg22o2l0cEQUxNF0iTkpFqYLsghtCBAxnqi++NyYZ2E4ZWtRVu2gr5OsgsWmAxIoZQv4/gD2videPUbdHwLu5iNbIuok19FfKxIAADvRhowI24HxJsUrJ0oTnLMYzJJzOIiK9CaSdk1CEtDmcwxJDzMfTFABVcXHAMZeeFgqsuRcYSbRUDhmhhAOcezJD91jNhPMK5nGPI+ddIxERbaBcK0EXIphMY8gOGH44mMrSq/Xi13JHc6SIsIN0EzZcSw5LLeUvZngoLFXIMeQfN93qya6y+Nv3RdD8bLw6H+eI6qSK50zKEsyzHcKrfVmH2dHKzo4mmQfKIPM9z3dTSDuirEO0sYVemBcNjVyXX7dwif23AEGkNdSHLAI3DH/IS6L3mGDIr9zrVVxlbFV7CBc3RAsRw5YIXnuQlM+YC+Dq2UJQb6qfZ0QrVhCF2s5lZg1jpkU/+By6A/4cTO92/L2iqMZaIvMyEIVJHhgsXP/3d0B8D/2/K8LgKwWEwTfGeYcTwgB5klkKAfIIr6oox80zWLk15BjMYjBhin5JZiTG8K5hSYlBbQNOcW1uQQM5CysBPcTHdgFpL+TF0YFOP+iqQIQxVc+tDGnB2pBa4aLjwDBW3qsn52UoUgBAi7PtQfbGOVBLQI0AxRB4YnqHSXMekIgI2PVb6BdC1BNu2lG9TAGdPSs2j4JCwCMG6RvBYJsaOEljTN05AZQ9FDD1R6UdawdFA/Y4WlULn04KnayJc57XK/VXypxLdVnw1PvoZflxoDgGT3C9TIvLAhEHabWhiloYXiqVemxxULkre8+qtYFhVRaUGHFdAUGpJLejIYdIyj01tDHtYXfroWrJjQc0sKxC6pOp6t9uhaRe+RTOQq3HF9+rdeKgVKoQ9Ai1LNOKT/n7YPmM4Ugw3cpQh81F2eJiVT4TWi6qfBEBXLcoRTv6dWtqQ1rtIyjJD16h6CRqeRNdmAD8M6sDJv1OrqNGKEi3jUpxW/tqgqbinG3sHYDIOElaim9PeTudi4Cak7TByDYrRKfrOtGomNOfpjRhpXZ7bxof6fHrScXotOtUs56U4hToAtg/ldSX5hPJ7GQkq39jA3qylVfnU3BtcRk0ZOY3hKgn1lPtqQHRprviMdzQHGEXlWmJXJSxsj/I4VOvYioA+Y7TuuuuGfw6LjTS84nKCreHehk6ZnjhW8x7toPKHOK9mcq0C2Vht+tP9eL4tl+HHbcM23a2EejgmU2P60UvqMnmtaNG/zx6r/aEd1MSFcT08nK9fTxd0UqzZayu96DDr/0yOaGxmi3JQf3E9V5c78PeDDz744IMPPsgf/wH9O9Oq3PgiMwAAAABJRU5ErkJggg==;" vertex="1" parent="1">
          <mxGeometry x="842" y="812.5" width="45" height="45" as="geometry" />
        </mxCell>
        <mxCell id="N7gpur8GiexcyIwk1VWw-32" value="&lt;font face=&quot;宋体&quot;&gt;数据存储层&lt;/font&gt;" style="text;html=1;align=center;verticalAlign=middle;resizable=0;points=[];autosize=1;strokeColor=none;fillColor=none;" vertex="1" parent="1">
          <mxGeometry x="600" y="800.0000000000002" width="80" height="30" as="geometry" />
        </mxCell>
        <mxCell id="N7gpur8GiexcyIwk1VWw-33" value="" style="rounded=0;whiteSpace=wrap;html=1;" vertex="1" parent="1">
          <mxGeometry x="600" y="410" width="370" height="70" as="geometry" />
        </mxCell>
        <mxCell id="N7gpur8GiexcyIwk1VWw-34" value="" style="rounded=0;whiteSpace=wrap;html=1;" vertex="1" parent="1">
          <mxGeometry x="600" y="600" width="370" height="70" as="geometry" />
        </mxCell>
        <mxCell id="N7gpur8GiexcyIwk1VWw-35" value="点云和目标预处理" style="rounded=1;whiteSpace=wrap;html=1;" vertex="1" parent="1">
          <mxGeometry x="670" y="615" width="80" height="40" as="geometry" />
        </mxCell>
        <mxCell id="N7gpur8GiexcyIwk1VWw-36" value="" style="shape=flexArrow;endArrow=classic;html=1;rounded=0;endWidth=6.815414315414315;endSize=2.490384615384615;width=5.55984555984556;entryX=0;entryY=0.5;entryDx=0;entryDy=0;" edge="1" parent="1">
          <mxGeometry width="50" height="50" relative="1" as="geometry">
            <mxPoint x="750" y="634.76" as="sourcePoint" />
            <mxPoint x="770" y="635" as="targetPoint" />
          </mxGeometry>
        </mxCell>
        <mxCell id="N7gpur8GiexcyIwk1VWw-37" value="姿态识别" style="rounded=1;whiteSpace=wrap;html=1;" vertex="1" parent="1">
          <mxGeometry x="770" y="615" width="80" height="40" as="geometry" />
        </mxCell>
        <mxCell id="N7gpur8GiexcyIwk1VWw-38" value="&lt;font face=&quot;宋体&quot;&gt;姿态识别层&lt;/font&gt;" style="text;html=1;align=center;verticalAlign=middle;resizable=0;points=[];autosize=1;strokeColor=none;fillColor=none;" vertex="1" parent="1">
          <mxGeometry x="600" y="600.0000000000002" width="80" height="30" as="geometry" />
        </mxCell>
        <mxCell id="N7gpur8GiexcyIwk1VWw-39" value="规则配置" style="rounded=1;whiteSpace=wrap;html=1;" vertex="1" parent="1">
          <mxGeometry x="670" y="425" width="80" height="40" as="geometry" />
        </mxCell>
        <mxCell id="N7gpur8GiexcyIwk1VWw-40" value="姿态识别" style="rounded=1;whiteSpace=wrap;html=1;" vertex="1" parent="1">
          <mxGeometry x="770" y="425" width="80" height="40" as="geometry" />
        </mxCell>
        <mxCell id="N7gpur8GiexcyIwk1VWw-42" value="&lt;font face=&quot;宋体&quot;&gt;应用层&lt;/font&gt;" style="text;html=1;align=center;verticalAlign=middle;resizable=0;points=[];autosize=1;strokeColor=none;fillColor=none;" vertex="1" parent="1">
          <mxGeometry x="600" y="410.0000000000002" width="60" height="30" as="geometry" />
        </mxCell>
        <mxCell id="N7gpur8GiexcyIwk1VWw-43" value="接收报警信息" style="rounded=1;whiteSpace=wrap;html=1;" vertex="1" parent="1">
          <mxGeometry x="870" y="425" width="80" height="40" as="geometry" />
        </mxCell>
        <mxCell id="N7gpur8GiexcyIwk1VWw-50" value="" style="shape=flexArrow;endArrow=classic;startArrow=classic;html=1;rounded=0;endWidth=6.577678902484243;endSize=2.0272;startWidth=6.577678902484243;startSize=2.6121827411167513;width=4.67005076142132;" edge="1" parent="1">
          <mxGeometry width="100" height="100" relative="1" as="geometry">
            <mxPoint x="785.14" y="575" as="sourcePoint" />
            <mxPoint x="784.85" y="600" as="targetPoint" />
          </mxGeometry>
        </mxCell>
        <mxCell id="N7gpur8GiexcyIwk1VWw-53" value="" style="shape=flexArrow;endArrow=classic;startArrow=classic;html=1;rounded=0;endWidth=6.577678902484243;endSize=2.0272;startWidth=6.577678902484243;startSize=2.6121827411167513;width=4.67005076142132;entryX=0.5;entryY=0;entryDx=0;entryDy=0;" edge="1" parent="1" target="N7gpur8GiexcyIwk1VWw-6">
          <mxGeometry width="100" height="100" relative="1" as="geometry">
            <mxPoint x="785.14" y="670" as="sourcePoint" />
            <mxPoint x="784.85" y="695" as="targetPoint" />
          </mxGeometry>
        </mxCell>
        <mxCell id="N7gpur8GiexcyIwk1VWw-54" value="" style="shape=flexArrow;endArrow=classic;startArrow=classic;html=1;rounded=0;endWidth=6.577678902484243;endSize=2.0272;startWidth=6.577678902484243;startSize=2.6121827411167513;width=4.67005076142132;entryX=0.5;entryY=0;entryDx=0;entryDy=0;" edge="1" parent="1" target="N7gpur8GiexcyIwk1VWw-28">
          <mxGeometry width="100" height="100" relative="1" as="geometry">
            <mxPoint x="785.15" y="770" as="sourcePoint" />
            <mxPoint x="784.86" y="795" as="targetPoint" />
          </mxGeometry>
        </mxCell>
        <mxCell id="N7gpur8GiexcyIwk1VWw-55" value="" style="shape=flexArrow;endArrow=classic;startArrow=classic;html=1;rounded=0;endWidth=6.577678902484243;endSize=2.0272;startWidth=6.577678902484243;startSize=2.6121827411167513;width=4.67005076142132;entryX=0.5;entryY=0;entryDx=0;entryDy=0;" edge="1" parent="1">
          <mxGeometry width="100" height="100" relative="1" as="geometry">
            <mxPoint x="785.01" y="870" as="sourcePoint" />
            <mxPoint x="784.86" y="900" as="targetPoint" />
          </mxGeometry>
        </mxCell>
      </root>
    </mxGraphModel>
  </diagram>
</mxfile>
